<svg class="icon" height="512" viewBox="0 0 1053 1024" xmlns="http://www.w3.org/2000/svg"><path d="M985.692 458.751c16.658 45.42 3.11 172.24-11.66 218.992 18.212 3.887 35.98 7.108 53.304 9.44 37.757-117.159 34.315-247.2-16.325-366.468.223 38.535-4.33 89.951-25.32 138.036zm-173.906-66.297a606.102 606.102 0 0 0-9.328-25.653c-7.551-19.878-20.322-49.862-38.535-81.29-21.432-37.312-45.53-68.296-71.627-92.283-57.414-7.329-128.93-7.884-218.77-1.554-55.637 50.528-93.506 149.696-107.054 190.341-1.443 4.109-2.776 7.774-3.553 11.105a1145.518 1145.518 0 0 0 13.992 24.764c21.433 37.536 42.31 69.74 62.41 100.835 12.105 18.878 23.877 36.868 35.093 55.525 3.775.777 10.439 1.999 19.323 3.332 20.877 3.442 41.977 5.996 62.521 7.773 43.088 3.443 104.166 4.886 152.029-9.55 35.87-53.527 76.18-115.937 103.943-181.346-.11-.445-.333-1.222-.444-2zm199.225-71.74c-.444-.665-.777-1.665-1.11-2.11.333.667.666 1.445 1.11 2.11zM451.426 937.048c69.74 5.22 145.255 9.106 225.433.555 2.888-2.887 7.44-7.995 13.438-14.436a773.353 773.353 0 0 0 39.645-48.64c24.653-32.538 56.191-80.623 70.295-127.154-5.33-9.328-11.327-19.767-18.323-32.093-8.996-15.325-18.435-31.65-28.096-48.308-14.992-25.43-30.206-51.86-44.42-76.625-82.178 23.432-195.561 5.664-234.429-1.665-28.651 43.754-61.633 87.175-93.394 129.152-9.55 12.77-19.656 25.875-29.317 38.868 6.885 32.649 23.432 74.182 44.864 111.495h.222l-2.554 1.554.111.111 2.554-1.332c18.213 31.65 37.869 56.636 53.971 68.518zM705.4 186.121c25.763 24.542 49.528 55.526 70.85 92.395 26.541 46.197 42.421 89.729 48.751 109.274 50.195 5.441 124.488 37.868 150.696 58.301 23.765-59.19 22.988-122.267 19.323-159.469-3.998-7.884-8.218-15.547-12.66-23.21-35.092-60.966-80.512-112.05-132.705-152.583-5.775-2.221-11.328-4.442-16.88-6.552-32.427-11.66-64.076-19.878-94.282-24.431 3.553 26.874-7.33 61.744-33.093 106.275zm317.494 514.499c-.111.11-.111.222-.111.222s0-.111.11-.222zm-210.33 54.637c-26.097 82.178-102.5 167.909-124.044 190.563 8.106 15.547 22.432 45.309 29.095 70.629 24.32-9.662 48.307-20.99 71.739-34.537 113.383-65.41 193.228-166.799 233.54-281.181-18.212-2.665-36.647-5.997-55.414-9.995-42.755 42.755-113.717 58.635-154.916 64.52zm-780.577-409c.444-.889.777-1.888 1.11-2.666-.333.778-.777 1.777-1.11 2.666zM152.81 664.195c-13.437-40.755-10.772-174.128-1.11-215.438-38.424-45.198-64.632-90.951-75.737-133.15-8.218 5.996-16.657 11.77-24.32 16.99-7.33 5.109-14.103 9.995-19.656 13.66-44.42 122.6-43.532 260.747 10.772 386.79 11.216 6.774 22.321 14.103 31.872 22.543 15.88-23.099 47.64-62.966 78.18-91.395zm286.845 281.403c-17.102-13.992-36.314-38.646-54.526-70.406-22.1-38.313-39.312-80.845-46.642-114.605-31.871-9.55-137.258-53.304-176.793-85.398-30.983 28.985-64.631 71.74-79.29 94.06 4.553 17.88 7.774 36.314 11.327 56.192v.111c65.187 94.393 156.804 161.58 259.082 197.226 33.648-21.543 67.963-53.97 86.842-77.18zM388.57 63.077C424.774 33.204 469.971 12.105 523.61 0c-88.396.444-178.014 22.988-260.08 70.406-19.324 11.105-37.758 23.432-55.193 36.536 39.756-20.211 108.83-47.974 180.235-43.865zm418.551 17.88c-49.973-31.428-104.61-54.083-161.579-67.409 38.757 15.547 65.742 34.426 86.398 50.973 24.32 3.109 49.417 8.773 75.181 16.435zm-646.537 356.36c58.746-31.427 125.71-49.306 189.342-50.528 12.326-37.98 51.083-146.032 111.384-202.89-1.555-3.22-3.665-6.996-5.997-11.105-16.99-29.206-50.75-76.292-65.853-95.615-85.731-5.552-170.574 39.312-194.783 53.194-2.332 1.443-4.11 2.443-5.664 3.22-42.977 44.643-84.065 120.49-101.278 170.463 5.219 22.877 14.88 47.197 29.206 71.74 11.66 20.321 26.208 41.088 43.643 61.521z"/></svg>