<?xml version="1.0" standalone="no"?><!DOCTYPE svg PUBLIC "-//W3C//DTD SVG 1.1//EN" "http://www.w3.org/Graphics/SVG/1.1/DTD/svg11.dtd"><svg class="icon" height="512" viewBox="0 0 1053 1024" version="1.1" xmlns="http://www.w3.org/2000/svg"><path d="M985.691895 458.751112c16.657629 45.419803 3.109424 172.239887-11.660341 218.9923 18.212341 3.88678 35.980479 7.107255 53.304414 9.439323 37.757293-117.15866 34.314716-247.199219-16.324477-366.467845C1011.233593 359.249539 1006.680508 410.666088 985.691895 458.751112zM811.786244 392.453747c-1.887865-5.552543-4.997289-14.547663-9.328272-25.652749C794.906513 346.922893 782.135664 316.939161 763.923323 285.511767 742.490506 248.198677 718.392469 217.215486 692.295517 193.2285c-57.413296-7.329357-128.930051-7.884611-218.770198-1.554712C417.888836 242.20193 380.020492 341.37035 366.472287 382.014966 365.028626 386.123848 363.696016 389.788526 362.91866 393.120052c4.442034 8.106713 9.217222 16.546578 13.992409 24.764342 21.432816 37.535191 42.310378 69.739941 62.410585 100.834183 12.104544 18.878647 23.875935 36.868886 35.092072 55.525431 3.775729 0.777356 10.438781 1.998916 19.32285 3.331526 20.877562 3.442577 41.977226 5.996747 62.521635 7.77356 43.087735 3.442577 104.165709 4.886238 152.02863-9.550374 35.869428-53.526516 76.180891-115.9371 103.943607-181.346058C812.119397 394.008459 811.897295 393.231103 811.786244 392.453747zM1011.011491 320.71489c-0.444203-0.666305-0.777356-1.665763-1.110509-2.109966C1010.234135 319.271229 1010.567288 320.048585 1011.011491 320.71489L1011.011491 320.71489zM451.426197 937.047175C521.166138 942.266565 596.680724 946.153346 676.859447 937.602429 679.746769 934.715107 684.299855 929.606767 690.296601 923.165817 699.846975 912.393884 714.394638 895.292051 729.941759 874.52554 754.59505 841.987637 786.133495 793.902614 800.236955 747.372302 794.906513 738.04403 788.909767 727.605249 781.913563 715.278603 772.918443 699.953584 763.479119 683.629107 753.817694 666.971478c-14.991866-25.430647-30.205835-51.860753-44.420345-76.625095-82.177638 23.431732-195.560568 5.663594-234.42837-1.665763C446.317857 632.43466 413.335751 675.855547 381.575204 717.832773 372.02483 730.603622 361.919202 743.707624 352.257777 756.700575c6.885153 32.648953 23.431732 74.181976 44.864548 111.495066l0.222102 0L394.790257 869.750352l0.111051 0.111051 2.55417-1.33261C415.667819 900.178289 435.323822 925.164733 451.426197 937.047175zM705.399518 186.121245c25.7638 24.542241 49.528685 55.525431 70.85045 92.394317 26.541156 46.197159 42.421429 89.729097 48.751328 109.274048 50.19499 5.441492 124.488016 37.868344 150.69602 58.301703 23.764885-59.19011 22.987528-122.266999 19.32285-159.469038C991.022336 278.737664 986.802403 271.075155 982.360369 263.412645 947.268296 202.445722 901.848494 151.362325 849.654588 110.82876c-5.774645-2.221017-11.327188-4.442034-16.879731-6.552001C800.348006 92.616419 768.69851 84.398655 738.492675 79.84557 742.046303 106.719879 731.163319 141.589849 705.399518 186.121245zM1022.893933 700.619889C1022.782883 700.73094 1022.782883 700.841991 1022.782883 700.841991l0 0C1022.782883 700.841991 1022.782883 700.73094 1022.893933 700.619889zM812.5636 755.256914C786.466648 837.434552 710.063655 923.165817 688.519787 945.820193 696.6265 961.367314 710.952062 991.128945 717.615113 1016.448541c24.320139-9.661425 48.307125-20.988613 71.738857-34.536818 113.38293-65.408958 193.2285-166.798395 233.539963-281.180783C1004.681592 698.06572 986.247149 694.734194 967.479553 690.736363 924.724971 733.490945 853.76347 749.371218 812.5636 755.256914zM31.98709 346.256588 31.98709 346.256588C32.431294 345.368181 32.764446 344.368724 33.097599 343.591368 32.764446 344.368724 32.320243 345.368181 31.98709 346.256588zM152.810428 664.195207c-13.437154-40.755666-10.771934-174.127752-1.110509-215.438673C113.276321 403.558833 87.068318 357.805878 75.963232 315.60655c-8.217764 5.996747-16.657629 11.771391-24.320139 16.990782-7.329357 5.10834-14.103459 9.994578-19.656003 13.659256-44.420345 122.600152-43.531938 260.747424 10.771934 386.790153C53.975161 739.820844 65.080247 747.150201 74.630621 755.590066 90.510895 732.491487 122.271441 692.624227 152.810428 664.195207zM439.654805 945.598091C422.552973 931.605683 403.341173 906.952391 385.128832 875.191845c-22.099122-38.312547-39.312005-80.845028-46.641362-114.60449C306.615872 751.036981 201.228604 707.282941 161.694497 675.189242 130.711307 704.173517 97.062896 746.928099 82.404182 769.249322c4.553085 17.879189 7.77356 36.313632 11.327188 56.191736l0 0.111051C158.918226 919.945342 250.535187 987.131114 352.813031 1022.778441 386.461442 1001.234573 420.776159 968.807722 439.654805 945.598091zM388.571409 63.07689C424.77399 33.204208 469.971691 12.104544 523.609257 0 435.212771 0.444203 345.594725 22.987528 263.528138 70.406247c-19.32285 11.105086-37.757293 23.431732-55.192278 36.535734C248.092068 86.730723 317.165704 58.968008 388.571409 63.07689zM807.122108 80.956079C757.14922 49.528685 702.512196 26.874309 645.543104 13.548205c38.756751 15.547121 65.74211 34.425767 86.397571 50.972346C756.260813 67.629975 781.358308 73.293569 807.122108 80.956079zM160.583989 437.318295c58.745906-31.427394 125.709576-49.306583 189.34172-50.528142 12.326646-37.979395 51.083397-146.031884 111.384015-202.889925-1.554712-3.220475-3.664678-6.996204-5.996747-11.105086C438.322195 143.588765 404.562733 96.503199 389.459816 77.180349c-85.731266-5.552543-170.574124 39.312005-194.783212 53.193363C192.344535 131.817373 190.567722 132.816831 189.013009 133.594187 146.036326 178.236634 104.947507 254.084373 87.734623 304.057261c5.219391 22.876478 14.880816 47.196616 29.206377 71.738857C128.60134 396.118425 143.149003 416.884937 160.583989 437.318295z" /></svg>